<?xml version="1.0" encoding="UTF-8" standalone="no"?>
<!DOCTYPE svg PUBLIC "-//W3C//DTD SVG 1.1//EN"
 "http://www.w3.org/Graphics/SVG/1.1/DTD/svg11.dtd">
<!-- Generated by graphviz version 2.30.1 (20180420.1509)
 -->
<!-- Title: G Pages: 1 -->
<svg width="268pt" height="260pt"
 viewBox="0.00 0.00 268.00 260.00" xmlns="http://www.w3.org/2000/svg" xmlns:xlink="http://www.w3.org/1999/xlink">
<g id="graph0" class="graph" transform="scale(1 1) rotate(0) translate(4 256)">
<title>G</title>
<polygon fill="white" stroke="white" points="-4,5 -4,-256 265,-256 265,5 -4,5"/>
<!-- core -->
<g id="node1" class="node"><title>core</title>
<ellipse fill="none" stroke="black" cx="145" cy="-234" rx="27" ry="18"/>
<text text-anchor="middle" x="145" y="-230.3" font-family="Times,serif" font-size="14.00">core</text>
</g>
<!-- utils -->
<g id="node2" class="node"><title>utils</title>
<ellipse fill="none" stroke="black" cx="145" cy="-162" rx="27" ry="18"/>
<text text-anchor="middle" x="145" y="-158.3" font-family="Times,serif" font-size="14.00">utils</text>
</g>
<!-- core&#45;&gt;utils -->
<g id="edge1" class="edge"><title>core&#45;&gt;utils</title>
<path fill="none" stroke="black" d="M145,-215.697C145,-207.983 145,-198.712 145,-190.112"/>
<polygon fill="black" stroke="black" points="148.5,-190.104 145,-180.104 141.5,-190.104 148.5,-190.104"/>
</g>
<!-- utils(use core) -->
<g id="node3" class="node"><title>utils(use core)</title>
<ellipse fill="none" stroke="black" cx="61" cy="-90" rx="61.1419" ry="18"/>
<text text-anchor="middle" x="61" y="-86.3" font-family="Times,serif" font-size="14.00">utils(use core)</text>
</g>
<!-- core&#45;&gt;utils(use core) -->
<g id="edge2" class="edge"><title>core&#45;&gt;utils(use core)</title>
<path fill="none" stroke="black" d="M128.11,-219.742C118.952,-209.168 108.428,-193.882 100,-180 87.4702,-159.362 74.5495,-135.212 66.6698,-117.279"/>
<polygon fill="black" stroke="black" points="69.8974,-115.925 62.8453,-108.019 63.4275,-118.597 69.8974,-115.925"/>
</g>
<!-- utils(use ngx_cycle&#45;&gt;log) -->
<g id="node4" class="node"><title>utils(use ngx_cycle&#45;&gt;log)</title>
<ellipse fill="none" stroke="black" cx="159" cy="-18" rx="101.087" ry="18"/>
<text text-anchor="middle" x="159" y="-14.3" font-family="Times,serif" font-size="14.00">utils(use ngx_cycle&#45;&gt;log)</text>
</g>
<!-- core&#45;&gt;utils(use ngx_cycle&#45;&gt;log) -->
<g id="edge3" class="edge"><title>core&#45;&gt;utils(use ngx_cycle&#45;&gt;log)</title>
<path fill="none" stroke="black" d="M152.308,-216.243C159.095,-206.445 167.881,-193.396 172,-180 186.067,-134.256 171.83,-78.4398 163.243,-45.9869"/>
<polygon fill="black" stroke="black" points="166.627,-45.0931 160.696,-36.3136 159.857,-46.8752 166.627,-45.0931"/>
</g>
<!-- utils&#45;&gt;utils(use core) -->
<g id="edge4" class="edge"><title>utils&#45;&gt;utils(use core)</title>
<path fill="none" stroke="black" d="M125.534,-149.125C112.719,-139.693 96.1323,-126.205 82.8946,-114.596"/>
<polygon fill="black" stroke="black" points="84.9344,-111.725 75.1486,-107.664 80.2661,-116.941 84.9344,-111.725"/>
</g>
<!-- utils&#45;&gt;utils(use ngx_cycle&#45;&gt;log) -->
<g id="edge5" class="edge"><title>utils&#45;&gt;utils(use ngx_cycle&#45;&gt;log)</title>
<path fill="none" stroke="black" d="M142.104,-143.871C141.932,-119.67 146.024,-75.2108 150.84,-46.3932"/>
<polygon fill="black" stroke="black" points="154.35,-46.657 152.714,-36.1893 147.465,-45.3925 154.35,-46.657"/>
</g>
<!-- utils(use core)&#45;&gt;utils -->
<g id="edge9" class="edge"><title>utils(use core)&#45;&gt;utils</title>
<path fill="none" stroke="black" d="M85.5057,-106.644C98.0214,-116.143 112.948,-128.418 124.803,-138.898"/>
<polygon fill="black" stroke="black" points="122.686,-141.703 132.452,-145.811 127.379,-136.509 122.686,-141.703"/>
</g>
<!-- utils(use core)&#45;&gt;core -->
<g id="edge10" class="edge"><title>utils(use core)&#45;&gt;core</title>
<path fill="none" stroke="black" d="M75.9867,-107.686C87.5617,-125.786 103.059,-155.39 118,-180 123.511,-189.077 129.918,-198.755 135.32,-207.323"/>
<polygon fill="black" stroke="black" points="132.49,-209.404 140.697,-216.104 138.46,-205.748 132.49,-209.404"/>
</g>
<!-- utils(use core)&#45;&gt;utils(use ngx_cycle&#45;&gt;log) -->
<g id="edge11" class="edge"><title>utils(use core)&#45;&gt;utils(use ngx_cycle&#45;&gt;log)</title>
<path fill="none" stroke="black" d="M78.3847,-72.411C90.4257,-63.0831 106.735,-51.3163 121.584,-41.2027"/>
<polygon fill="black" stroke="black" points="123.767,-43.9526 130.115,-35.4699 119.863,-38.1426 123.767,-43.9526"/>
</g>
<!-- utils(use ngx_cycle&#45;&gt;log)&#45;&gt;utils -->
<g id="edge6" class="edge"><title>utils(use ngx_cycle&#45;&gt;log)&#45;&gt;utils</title>
<path fill="none" stroke="black" d="M161.897,-36.3465C162.045,-60.7901 157.896,-105.586 153.044,-134.294"/>
<polygon fill="black" stroke="black" points="149.546,-133.961 151.158,-144.433 156.428,-135.242 149.546,-133.961"/>
</g>
<!-- utils(use ngx_cycle&#45;&gt;log)&#45;&gt;utils(use core) -->
<g id="edge7" class="edge"><title>utils(use ngx_cycle&#45;&gt;log)&#45;&gt;utils(use core)</title>
<path fill="none" stroke="black" d="M141.244,-35.8767C128.748,-45.538 111.785,-57.7436 96.618,-68.0184"/>
<polygon fill="black" stroke="black" points="94.3157,-65.3471 87.943,-73.811 98.203,-71.1686 94.3157,-65.3471"/>
</g>
<!-- utils(use ngx_cycle&#45;&gt;log)&#45;&gt;core -->
<g id="edge8" class="edge"><title>utils(use ngx_cycle&#45;&gt;log)&#45;&gt;core</title>
<path fill="none" stroke="black" d="M171.567,-36.3136C186.417,-66.2403 205.589,-129.306 190,-180 186.308,-192.006 178.869,-203.732 170.934,-213.09"/>
<polygon fill="black" stroke="black" points="168.153,-210.941 163.915,-220.651 173.283,-215.703 168.153,-210.941"/>
</g>
</g>
</svg>
