<?xml version="1.0" encoding="UTF-8" standalone="no"?>
<!DOCTYPE svg PUBLIC "-//W3C//DTD SVG 1.1//EN"
 "http://www.w3.org/Graphics/SVG/1.1/DTD/svg11.dtd">
<!-- Generated by graphviz version 2.30.1 (20180420.1509)
 -->
<!-- Title: G Pages: 1 -->
<svg width="3305pt" height="116pt"
 viewBox="0.00 0.00 3305.00 116.00" xmlns="http://www.w3.org/2000/svg" xmlns:xlink="http://www.w3.org/1999/xlink">
<g id="graph0" class="graph" transform="scale(1 1) rotate(0) translate(4 112)">
<title>G</title>
<polygon fill="white" stroke="white" points="-4,5 -4,-112 3302,-112 3302,5 -4,5"/>
<!-- ngx_http_header_filter_module.o -->
<g id="node1" class="node"><title>ngx_http_header_filter_module.o</title>
<ellipse fill="none" stroke="black" cx="129" cy="-90" rx="129.008" ry="18"/>
<text text-anchor="middle" x="129" y="-86.3" font-family="Times,serif" font-size="14.00">ngx_http_header_filter_module.o</text>
</g>
<!-- ngx_http_write_filter_module.o -->
<g id="node2" class="node"><title>ngx_http_write_filter_module.o</title>
<ellipse fill="none" stroke="black" cx="129" cy="-18" rx="124.209" ry="18"/>
<text text-anchor="middle" x="129" y="-14.3" font-family="Times,serif" font-size="14.00">ngx_http_write_filter_module.o</text>
</g>
<!-- ngx_http_header_filter_module.o&#45;&gt;ngx_http_write_filter_module.o -->
<g id="edge1" class="edge"><title>ngx_http_header_filter_module.o&#45;&gt;ngx_http_write_filter_module.o</title>
<path fill="none" stroke="black" d="M129,-71.6966C129,-63.9827 129,-54.7125 129,-46.1124"/>
<polygon fill="black" stroke="black" points="132.5,-46.1043 129,-36.1043 125.5,-46.1044 132.5,-46.1043"/>
</g>
<!-- ngx_http_upstream_least_conn_module.o -->
<g id="node3" class="node"><title>ngx_http_upstream_least_conn_module.o</title>
<ellipse fill="none" stroke="black" cx="436" cy="-90" rx="159.354" ry="18"/>
<text text-anchor="middle" x="436" y="-86.3" font-family="Times,serif" font-size="14.00">ngx_http_upstream_least_conn_module.o</text>
</g>
<!-- ngx_http_upstream_round_robin.o -->
<g id="node4" class="node"><title>ngx_http_upstream_round_robin.o</title>
<ellipse fill="none" stroke="black" cx="1084" cy="-18" rx="133.333" ry="18"/>
<text text-anchor="middle" x="1084" y="-14.3" font-family="Times,serif" font-size="14.00">ngx_http_upstream_round_robin.o</text>
</g>
<!-- ngx_http_upstream_least_conn_module.o&#45;&gt;ngx_http_upstream_round_robin.o -->
<g id="edge2" class="edge"><title>ngx_http_upstream_least_conn_module.o&#45;&gt;ngx_http_upstream_round_robin.o</title>
<path fill="none" stroke="black" d="M546.659,-77.0461C665.729,-64.1836 854.001,-43.8456 973.147,-30.9749"/>
<polygon fill="black" stroke="black" points="973.818,-34.4228 983.385,-29.8689 973.067,-27.4633 973.818,-34.4228"/>
</g>
<!-- ngx_http_upstream_ip_hash_module.o -->
<g id="node5" class="node"><title>ngx_http_upstream_ip_hash_module.o</title>
<ellipse fill="none" stroke="black" cx="762" cy="-90" rx="148.256" ry="18"/>
<text text-anchor="middle" x="762" y="-86.3" font-family="Times,serif" font-size="14.00">ngx_http_upstream_ip_hash_module.o</text>
</g>
<!-- ngx_http_upstream_ip_hash_module.o&#45;&gt;ngx_http_upstream_round_robin.o -->
<g id="edge3" class="edge"><title>ngx_http_upstream_ip_hash_module.o&#45;&gt;ngx_http_upstream_round_robin.o</title>
<path fill="none" stroke="black" d="M831.077,-73.9832C882.832,-62.7322 953.645,-47.338 1007.18,-35.6998"/>
<polygon fill="black" stroke="black" points="1007.94,-39.1168 1016.97,-33.5723 1006.45,-32.2766 1007.94,-39.1168"/>
</g>
<!-- ngx_http_uwsgi_module.o -->
<g id="node6" class="node"><title>ngx_http_uwsgi_module.o</title>
<ellipse fill="none" stroke="black" cx="1972" cy="-90" rx="104.937" ry="18"/>
<text text-anchor="middle" x="1972" y="-86.3" font-family="Times,serif" font-size="14.00">ngx_http_uwsgi_module.o</text>
</g>
<!-- ngx_http_file_cache.o -->
<g id="node7" class="node"><title>ngx_http_file_cache.o</title>
<ellipse fill="none" stroke="black" cx="2306" cy="-18" rx="89.0632" ry="18"/>
<text text-anchor="middle" x="2306" y="-14.3" font-family="Times,serif" font-size="14.00">ngx_http_file_cache.o</text>
</g>
<!-- ngx_http_uwsgi_module.o&#45;&gt;ngx_http_file_cache.o -->
<g id="edge4" class="edge"><title>ngx_http_uwsgi_module.o&#45;&gt;ngx_http_file_cache.o</title>
<path fill="none" stroke="black" d="M2036,-75.5861C2093.48,-63.5398 2177.67,-45.8963 2236.71,-33.5214"/>
<polygon fill="black" stroke="black" points="2237.63,-36.9056 2246.7,-31.4287 2236.19,-30.0545 2237.63,-36.9056"/>
</g>
<!-- ngx_http_upstream_keepalive_module.o -->
<g id="node8" class="node"><title>ngx_http_upstream_keepalive_module.o</title>
<ellipse fill="none" stroke="black" cx="1084" cy="-90" rx="155.005" ry="18"/>
<text text-anchor="middle" x="1084" y="-86.3" font-family="Times,serif" font-size="14.00">ngx_http_upstream_keepalive_module.o</text>
</g>
<!-- ngx_http_upstream_keepalive_module.o&#45;&gt;ngx_http_upstream_round_robin.o -->
<g id="edge5" class="edge"><title>ngx_http_upstream_keepalive_module.o&#45;&gt;ngx_http_upstream_round_robin.o</title>
<path fill="none" stroke="black" d="M1084,-71.6966C1084,-63.9827 1084,-54.7125 1084,-46.1124"/>
<polygon fill="black" stroke="black" points="1087.5,-46.1043 1084,-36.1043 1080.5,-46.1044 1087.5,-46.1043"/>
</g>
<!-- ngx_http_not_modified_filter_module.o -->
<g id="node9" class="node"><title>ngx_http_not_modified_filter_module.o</title>
<ellipse fill="none" stroke="black" cx="2926" cy="-90" rx="153.08" ry="18"/>
<text text-anchor="middle" x="2926" y="-86.3" font-family="Times,serif" font-size="14.00">ngx_http_not_modified_filter_module.o</text>
</g>
<!-- ngx_http_special_response.o -->
<g id="node10" class="node"><title>ngx_http_special_response.o</title>
<ellipse fill="none" stroke="black" cx="2926" cy="-18" rx="112.16" ry="18"/>
<text text-anchor="middle" x="2926" y="-14.3" font-family="Times,serif" font-size="14.00">ngx_http_special_response.o</text>
</g>
<!-- ngx_http_not_modified_filter_module.o&#45;&gt;ngx_http_special_response.o -->
<g id="edge6" class="edge"><title>ngx_http_not_modified_filter_module.o&#45;&gt;ngx_http_special_response.o</title>
<path fill="none" stroke="black" d="M2926,-71.6966C2926,-63.9827 2926,-54.7125 2926,-46.1124"/>
<polygon fill="black" stroke="black" points="2929.5,-46.1043 2926,-36.1043 2922.5,-46.1044 2929.5,-46.1043"/>
</g>
<!-- ngx_http_grpc_module.o -->
<g id="node11" class="node"><title>ngx_http_grpc_module.o</title>
<ellipse fill="none" stroke="black" cx="3197" cy="-90" rx="100.137" ry="18"/>
<text text-anchor="middle" x="3197" y="-86.3" font-family="Times,serif" font-size="14.00">ngx_http_grpc_module.o</text>
</g>
<!-- http2 -->
<g id="node12" class="node"><title>http2</title>
<ellipse fill="none" stroke="black" cx="3197" cy="-18" rx="28.3955" ry="18"/>
<text text-anchor="middle" x="3197" y="-14.3" font-family="Times,serif" font-size="14.00">http2</text>
</g>
<!-- ngx_http_grpc_module.o&#45;&gt;http2 -->
<g id="edge7" class="edge"><title>ngx_http_grpc_module.o&#45;&gt;http2</title>
<path fill="none" stroke="black" d="M3197,-71.6966C3197,-63.9827 3197,-54.7125 3197,-46.1124"/>
<polygon fill="black" stroke="black" points="3200.5,-46.1043 3197,-36.1043 3193.5,-46.1044 3200.5,-46.1043"/>
</g>
<!-- ngx_http_scgi_module.o -->
<g id="node13" class="node"><title>ngx_http_scgi_module.o</title>
<ellipse fill="none" stroke="black" cx="2194" cy="-90" rx="98.1881" ry="18"/>
<text text-anchor="middle" x="2194" y="-86.3" font-family="Times,serif" font-size="14.00">ngx_http_scgi_module.o</text>
</g>
<!-- ngx_http_scgi_module.o&#45;&gt;ngx_http_file_cache.o -->
<g id="edge8" class="edge"><title>ngx_http_scgi_module.o&#45;&gt;ngx_http_file_cache.o</title>
<path fill="none" stroke="black" d="M2220.26,-72.5881C2235.42,-63.1095 2254.69,-51.0685 2271.12,-40.8023"/>
<polygon fill="black" stroke="black" points="2273.28,-43.5771 2279.91,-35.3091 2269.57,-37.6411 2273.28,-43.5771"/>
</g>
<!-- ngx_http_fastcgi_module.o -->
<g id="node14" class="node"><title>ngx_http_fastcgi_module.o</title>
<ellipse fill="none" stroke="black" cx="2419" cy="-90" rx="107.336" ry="18"/>
<text text-anchor="middle" x="2419" y="-86.3" font-family="Times,serif" font-size="14.00">ngx_http_fastcgi_module.o</text>
</g>
<!-- ngx_http_fastcgi_module.o&#45;&gt;ngx_http_file_cache.o -->
<g id="edge9" class="edge"><title>ngx_http_fastcgi_module.o&#45;&gt;ngx_http_file_cache.o</title>
<path fill="none" stroke="black" d="M2392.22,-72.411C2376.91,-62.9277 2357.53,-50.9235 2341.03,-40.6986"/>
<polygon fill="black" stroke="black" points="2342.54,-37.5193 2332.2,-35.2285 2338.86,-43.47 2342.54,-37.5193"/>
</g>
<!-- ngx_http_upstream_random_module.o -->
<g id="node15" class="node"><title>ngx_http_upstream_random_module.o</title>
<ellipse fill="none" stroke="black" cx="1406" cy="-90" rx="148.256" ry="18"/>
<text text-anchor="middle" x="1406" y="-86.3" font-family="Times,serif" font-size="14.00">ngx_http_upstream_random_module.o</text>
</g>
<!-- ngx_http_upstream_random_module.o&#45;&gt;ngx_http_upstream_round_robin.o -->
<g id="edge10" class="edge"><title>ngx_http_upstream_random_module.o&#45;&gt;ngx_http_upstream_round_robin.o</title>
<path fill="none" stroke="black" d="M1336.92,-73.9832C1285.17,-62.7322 1214.35,-47.338 1160.82,-35.6998"/>
<polygon fill="black" stroke="black" points="1161.55,-32.2766 1151.03,-33.5723 1160.06,-39.1168 1161.55,-32.2766"/>
</g>
<!-- ngx_http_proxy_module.o -->
<g id="node16" class="node"><title>ngx_http_proxy_module.o</title>
<ellipse fill="none" stroke="black" cx="2650" cy="-90" rx="104.461" ry="18"/>
<text text-anchor="middle" x="2650" y="-86.3" font-family="Times,serif" font-size="14.00">ngx_http_proxy_module.o</text>
</g>
<!-- ngx_http_proxy_module.o&#45;&gt;ngx_http_file_cache.o -->
<g id="edge11" class="edge"><title>ngx_http_proxy_module.o&#45;&gt;ngx_http_file_cache.o</title>
<path fill="none" stroke="black" d="M2585.3,-75.8335C2525.75,-63.716 2437.63,-45.785 2376.35,-33.316"/>
<polygon fill="black" stroke="black" points="2376.88,-29.8507 2366.38,-31.2863 2375.48,-36.7101 2376.88,-29.8507"/>
</g>
<!-- ngx_http_upstream_hash_module.o -->
<g id="node17" class="node"><title>ngx_http_upstream_hash_module.o</title>
<ellipse fill="none" stroke="black" cx="1711" cy="-90" rx="137.183" ry="18"/>
<text text-anchor="middle" x="1711" y="-86.3" font-family="Times,serif" font-size="14.00">ngx_http_upstream_hash_module.o</text>
</g>
<!-- ngx_http_upstream_hash_module.o&#45;&gt;ngx_http_upstream_round_robin.o -->
<g id="edge12" class="edge"><title>ngx_http_upstream_hash_module.o&#45;&gt;ngx_http_upstream_round_robin.o</title>
<path fill="none" stroke="black" d="M1611.49,-77.5126C1595.29,-75.6582 1578.68,-73.7677 1563,-72 1436.53,-57.7398 1291.23,-41.7133 1194.14,-31.0546"/>
<polygon fill="black" stroke="black" points="1194.33,-27.5554 1184.01,-29.9435 1193.57,-34.5136 1194.33,-27.5554"/>
</g>
</g>
</svg>
