<?xml version="1.0" encoding="UTF-8" standalone="no"?>
<!DOCTYPE svg PUBLIC "-//W3C//DTD SVG 1.1//EN"
 "http://www.w3.org/Graphics/SVG/1.1/DTD/svg11.dtd">
<!-- Generated by graphviz version 2.30.1 (20180420.1509)
 -->
<!-- Title: G Pages: 1 -->
<svg width="316pt" height="260pt"
 viewBox="0.00 0.00 316.00 260.00" xmlns="http://www.w3.org/2000/svg" xmlns:xlink="http://www.w3.org/1999/xlink">
<g id="graph0" class="graph" transform="scale(1 1) rotate(0) translate(4 256)">
<title>G</title>
<polygon fill="white" stroke="white" points="-4,5 -4,-256 313,-256 313,5 -4,5"/>
<!-- core -->
<g id="node1" class="node"><title>core</title>
<ellipse fill="none" stroke="black" cx="198" cy="-162" rx="27" ry="18"/>
<text text-anchor="middle" x="198" y="-158.3" font-family="Times,serif" font-size="14.00">core</text>
</g>
<!-- event -->
<g id="node2" class="node"><title>event</title>
<ellipse fill="none" stroke="black" cx="131" cy="-90" rx="29.3479" ry="18"/>
<text text-anchor="middle" x="131" y="-86.3" font-family="Times,serif" font-size="14.00">event</text>
</g>
<!-- core&#45;&gt;event -->
<g id="edge1" class="edge"><title>core&#45;&gt;event</title>
<path fill="none" stroke="black" d="M180.347,-148.161C170.111,-138.887 157.499,-126.086 147.481,-114.949"/>
<polygon fill="black" stroke="black" points="149.932,-112.434 140.716,-107.208 144.661,-117.041 149.932,-112.434"/>
</g>
<!-- os -->
<g id="node3" class="node"><title>os</title>
<ellipse fill="none" stroke="black" cx="164" cy="-18" rx="27" ry="18"/>
<text text-anchor="middle" x="164" y="-14.3" font-family="Times,serif" font-size="14.00">os</text>
</g>
<!-- core&#45;&gt;os -->
<g id="edge2" class="edge"><title>core&#45;&gt;os</title>
<path fill="none" stroke="black" d="M189.606,-144.711C181.215,-120.705 170.077,-75.5254 165.096,-46.372"/>
<polygon fill="black" stroke="black" points="168.545,-45.7722 163.557,-36.4253 161.628,-46.8431 168.545,-45.7722"/>
</g>
<!-- event&#45;&gt;core -->
<g id="edge5" class="edge"><title>event&#45;&gt;core</title>
<path fill="none" stroke="black" d="M149.342,-104.466C159.586,-113.807 172.052,-126.496 181.91,-137.486"/>
<polygon fill="black" stroke="black" points="179.349,-139.875 188.557,-145.116 184.627,-135.277 179.349,-139.875"/>
</g>
<!-- event&#45;&gt;os -->
<g id="edge6" class="edge"><title>event&#45;&gt;os</title>
<path fill="none" stroke="black" d="M133.242,-71.6966C136.417,-63.073 141.222,-52.5044 146.188,-43.1015"/>
<polygon fill="black" stroke="black" points="149.337,-44.6404 151.153,-34.2024 143.224,-41.2296 149.337,-44.6404"/>
</g>
<!-- os&#45;&gt;core -->
<g id="edge3" class="edge"><title>os&#45;&gt;core</title>
<path fill="none" stroke="black" d="M172.402,-35.3119C180.822,-59.4108 192.006,-104.811 196.958,-133.944"/>
<polygon fill="black" stroke="black" points="193.505,-134.519 198.483,-143.871 200.424,-133.456 193.505,-134.519"/>
</g>
<!-- os&#45;&gt;event -->
<g id="edge4" class="edge"><title>os&#45;&gt;event</title>
<path fill="none" stroke="black" d="M161.884,-35.9618C158.752,-44.5326 153.972,-55.0894 149.011,-64.522"/>
<polygon fill="black" stroke="black" points="145.84,-63.0232 144.044,-73.4647 151.959,-66.4222 145.84,-63.0232"/>
</g>
<!-- http -->
<g id="node4" class="node"><title>http</title>
<ellipse fill="none" stroke="black" cx="27" cy="-234" rx="27" ry="18"/>
<text text-anchor="middle" x="27" y="-230.3" font-family="Times,serif" font-size="14.00">http</text>
</g>
<!-- http&#45;&gt;os -->
<g id="edge7" class="edge"><title>http&#45;&gt;os</title>
<path fill="none" stroke="black" d="M28.5309,-215.671C32.1155,-184.042 43.5481,-116.15 78,-72 91.9655,-54.1031 113.794,-40.7548 131.965,-31.9307"/>
<polygon fill="black" stroke="black" points="133.458,-35.0962 141.072,-27.7286 130.525,-28.7402 133.458,-35.0962"/>
</g>
<!-- http&#45;&gt;core -->
<g id="edge8" class="edge"><title>http&#45;&gt;core</title>
<path fill="none" stroke="black" d="M48.2128,-222.694C53.0454,-220.427 58.1775,-218.083 63,-216 97.587,-201.064 137.861,-185.482 165.359,-175.112"/>
<polygon fill="black" stroke="black" points="166.746,-178.33 174.877,-171.538 164.285,-171.776 166.746,-178.33"/>
</g>
<!-- http&#45;&gt;event -->
<g id="edge9" class="edge"><title>http&#45;&gt;event</title>
<path fill="none" stroke="black" d="M38.3278,-217.533C56.3622,-192.909 91.749,-144.593 113.195,-115.31"/>
<polygon fill="black" stroke="black" points="116.284,-117.017 119.369,-106.881 110.636,-112.881 116.284,-117.017"/>
</g>
<!-- stream -->
<g id="node5" class="node"><title>stream</title>
<ellipse fill="none" stroke="black" cx="106" cy="-234" rx="34.1708" ry="18"/>
<text text-anchor="middle" x="106" y="-230.3" font-family="Times,serif" font-size="14.00">stream</text>
</g>
<!-- stream&#45;&gt;core -->
<g id="edge10" class="edge"><title>stream&#45;&gt;core</title>
<path fill="none" stroke="black" d="M124.618,-218.834C138.528,-208.25 157.691,-193.67 172.947,-182.062"/>
<polygon fill="black" stroke="black" points="175.123,-184.805 180.962,-175.964 170.884,-179.234 175.123,-184.805"/>
</g>
<!-- stream&#45;&gt;os -->
<g id="edge11" class="edge"><title>stream&#45;&gt;os</title>
<path fill="none" stroke="black" d="M98.8919,-215.9C87.3094,-185.215 67.9468,-119.573 92,-72 100.584,-55.0231 117.451,-42.1537 132.704,-33.3502"/>
<polygon fill="black" stroke="black" points="134.76,-36.2182 141.903,-28.3937 131.439,-30.0557 134.76,-36.2182"/>
</g>
<!-- stream&#45;&gt;event -->
<g id="edge12" class="edge"><title>stream&#45;&gt;event</title>
<path fill="none" stroke="black" d="M109.016,-215.871C113.276,-191.67 121.104,-147.211 126.177,-118.393"/>
<polygon fill="black" stroke="black" points="129.687,-118.645 127.974,-108.189 122.793,-117.431 129.687,-118.645"/>
</g>
<!-- mail -->
<g id="node6" class="node"><title>mail</title>
<ellipse fill="none" stroke="black" cx="198" cy="-234" rx="27" ry="18"/>
<text text-anchor="middle" x="198" y="-230.3" font-family="Times,serif" font-size="14.00">mail</text>
</g>
<!-- mail&#45;&gt;core -->
<g id="edge13" class="edge"><title>mail&#45;&gt;core</title>
<path fill="none" stroke="black" d="M198,-215.697C198,-207.983 198,-198.712 198,-190.112"/>
<polygon fill="black" stroke="black" points="201.5,-190.104 198,-180.104 194.5,-190.104 201.5,-190.104"/>
</g>
<!-- mail&#45;&gt;os -->
<g id="edge14" class="edge"><title>mail&#45;&gt;os</title>
<path fill="none" stroke="black" d="M211.75,-218.069C219.961,-208.1 229.619,-194.247 234,-180 238.703,-164.707 237.045,-159.708 234,-144 227.436,-110.132 222.161,-101.927 205,-72 198.974,-61.492 191.067,-50.7639 183.807,-41.7331"/>
<polygon fill="black" stroke="black" points="186.461,-39.4506 177.393,-33.9718 181.065,-43.9098 186.461,-39.4506"/>
</g>
<!-- mail&#45;&gt;event -->
<g id="edge15" class="edge"><title>mail&#45;&gt;event</title>
<path fill="none" stroke="black" d="M185.827,-217.435C178.246,-207.214 168.696,-193.316 162,-180 151.876,-159.866 143.672,-135.634 138.253,-117.543"/>
<polygon fill="black" stroke="black" points="141.613,-116.56 135.463,-107.933 134.89,-118.512 141.613,-116.56"/>
</g>
<!-- misc -->
<g id="node7" class="node"><title>misc</title>
<ellipse fill="none" stroke="black" cx="281" cy="-234" rx="27.4223" ry="18"/>
<text text-anchor="middle" x="281" y="-230.3" font-family="Times,serif" font-size="14.00">misc</text>
</g>
<!-- misc&#45;&gt;os -->
<g id="edge16" class="edge"><title>misc&#45;&gt;os</title>
<path fill="none" stroke="black" d="M278.693,-215.601C273.882,-184.443 260.493,-118.075 229,-72 219.387,-57.9356 204.984,-45.6564 192.177,-36.4684"/>
<polygon fill="black" stroke="black" points="193.871,-33.3862 183.644,-30.6174 189.912,-39.1593 193.871,-33.3862"/>
</g>
<!-- misc&#45;&gt;core -->
<g id="edge17" class="edge"><title>misc&#45;&gt;core</title>
<path fill="none" stroke="black" d="M264.602,-219.17C252.359,-208.845 235.448,-194.582 221.73,-183.013"/>
<polygon fill="black" stroke="black" points="223.982,-180.334 214.082,-176.563 219.47,-185.685 223.982,-180.334"/>
</g>
</g>
</svg>
